# This file uses centimeters as units for non-parametric coordinates.

mtllib b102.mtl
g default
v 2.675550 -2.349800 0.300000
v 3.083050 -2.051900 0.300000
v 2.569350 -2.204500 0.300000
v 2.976850 -1.906600 0.300000
v 2.569350 -2.204500 0.200000
v 2.976850 -1.906600 0.200000
v 2.675550 -2.349800 0.200000
v 3.083050 -2.051900 0.200000
vt 0.330000 0.000000
vt 0.663333 0.000000
vt 0.330000 0.250000
vt 0.663333 0.250000
vt 0.330000 0.500000
vt 0.663333 0.500000
vt 0.330000 0.750000
vt 0.663333 0.750000
vt 0.330000 1.000000
vt 0.663333 1.000000
vt 1.000000 0.000000
vt 1.000000 0.250000
vt 0.000000 0.000000
vt 0.000000 0.250000
vn 0.000000 0.000000 1.000000
vn 0.000000 0.000000 1.000000
vn 0.000000 0.000000 1.000000
vn 0.000000 0.000000 1.000000
vn -0.590161 0.807286 0.000000
vn -0.590161 0.807286 0.000000
vn -0.590161 0.807286 0.000000
vn -0.590161 0.807286 0.000000
vn 0.000000 0.000000 -1.000000
vn 0.000000 0.000000 -1.000000
vn 0.000000 0.000000 -1.000000
vn 0.000000 0.000000 -1.000000
vn 0.590161 -0.807286 0.000000
vn 0.590161 -0.807286 0.000000
vn 0.590161 -0.807286 0.000000
vn 0.590161 -0.807286 0.000000
vn 0.807340 0.590086 0.000000
vn 0.807340 0.590086 0.000000
vn 0.807340 0.590086 0.000000
vn 0.807340 0.590086 0.000000
vn -0.807340 -0.590086 0.000000
vn -0.807340 -0.590086 0.000000
vn -0.807340 -0.590086 0.000000
vn -0.807340 -0.590086 0.000000
s off
g pCube102
usemtl initialShadingGroup
f 1/1/1 2/2/2 4/4/3 3/3/4
f 3/3/5 4/4/6 6/6/7 5/5/8
f 5/5/9 6/6/10 8/8/11 7/7/12
f 7/7/13 8/8/14 2/10/15 1/9/16
f 2/2/17 8/11/18 6/12/19 4/4/20
f 7/13/21 1/1/22 3/3/23 5/14/24
