# This file uses centimeters as units for non-parametric coordinates.

mtllib b142.mtl
g default
v 1.508000 -3.404350 0.400000
v 1.853700 -3.104450 0.400000
v 1.390100 -3.268350 0.400000
v 1.735800 -2.968450 0.400000
v 1.390100 -3.268350 0.300000
v 1.735800 -2.968450 0.300000
v 1.508000 -3.404350 0.300000
v 1.853700 -3.104450 0.300000
vt 0.330000 0.000000
vt 0.663333 0.000000
vt 0.330000 0.250000
vt 0.663333 0.250000
vt 0.330000 0.500000
vt 0.663333 0.500000
vt 0.330000 0.750000
vt 0.663333 0.750000
vt 0.330000 1.000000
vt 0.663333 1.000000
vt 1.000000 0.000000
vt 1.000000 0.250000
vt 0.000000 0.000000
vt 0.000000 0.250000
vn 0.000000 0.000000 1.000000
vn 0.000000 0.000000 1.000000
vn 0.000000 0.000000 1.000000
vn 0.000000 0.000000 1.000000
vn -0.655296 0.755372 0.000000
vn -0.655296 0.755372 0.000000
vn -0.655296 0.755372 0.000000
vn -0.655296 0.755372 0.000000
vn 0.000000 0.000000 -1.000000
vn 0.000000 0.000000 -1.000000
vn 0.000000 0.000000 -1.000000
vn 0.000000 0.000000 -1.000000
vn 0.655296 -0.755372 0.000000
vn 0.655296 -0.755372 0.000000
vn 0.655296 -0.755372 0.000000
vn 0.655296 -0.755372 0.000000
vn 0.755597 0.655036 0.000000
vn 0.755597 0.655036 0.000000
vn 0.755597 0.655036 0.000000
vn 0.755597 0.655036 0.000000
vn -0.755597 -0.655036 0.000000
vn -0.755597 -0.655036 0.000000
vn -0.755597 -0.655036 0.000000
vn -0.755597 -0.655036 0.000000
s off
g pCube142
usemtl initialShadingGroup
f 1/1/1 2/2/2 4/4/3 3/3/4
f 3/3/5 4/4/6 6/6/7 5/5/8
f 5/5/9 6/6/10 8/8/11 7/7/12
f 7/7/13 8/8/14 2/10/15 1/9/16
f 2/2/17 8/11/18 6/12/19 4/4/20
f 7/13/21 1/1/22 3/3/23 5/14/24
