# This file uses centimeters as units for non-parametric coordinates.

mtllib b179.mtl
g default
v -1.569700 -3.384900 0.500000
v -1.154300 -3.557300 0.500000
v -1.500700 -3.218700 0.500000
v -1.085300 -3.391100 0.500000
v -1.500700 -3.218700 0.400000
v -1.085300 -3.391100 0.400000
v -1.569700 -3.384900 0.400000
v -1.154300 -3.557300 0.400000
vt 0.330000 0.000000
vt 0.663333 0.000000
vt 0.330000 0.250000
vt 0.663333 0.250000
vt 0.330000 0.500000
vt 0.663333 0.500000
vt 0.330000 0.750000
vt 0.663333 0.750000
vt 0.330000 1.000000
vt 0.663333 1.000000
vt 1.000000 0.000000
vt 1.000000 0.250000
vt 0.000000 0.000000
vt 0.000000 0.250000
vn 0.000000 0.000000 1.000000
vn 0.000000 0.000000 1.000000
vn 0.000000 0.000000 1.000000
vn 0.000000 0.000000 1.000000
vn 0.383320 0.923615 0.000000
vn 0.383320 0.923615 0.000000
vn 0.383320 0.923615 0.000000
vn 0.383320 0.923615 0.000000
vn 0.000000 0.000000 -1.000000
vn 0.000000 0.000000 -1.000000
vn 0.000000 0.000000 -1.000000
vn 0.000000 0.000000 -1.000000
vn -0.383320 -0.923615 0.000000
vn -0.383320 -0.923615 0.000000
vn -0.383320 -0.923615 0.000000
vn -0.383320 -0.923615 0.000000
vn 0.923569 -0.383431 0.000000
vn 0.923569 -0.383431 0.000000
vn 0.923569 -0.383431 0.000000
vn 0.923569 -0.383431 0.000000
vn -0.923569 0.383431 0.000000
vn -0.923569 0.383431 0.000000
vn -0.923569 0.383431 0.000000
vn -0.923569 0.383431 0.000000
s off
g pCube179
usemtl initialShadingGroup
f 1/1/1 2/2/2 4/4/3 3/3/4
f 3/3/5 4/4/6 6/6/7 5/5/8
f 5/5/9 6/6/10 8/8/11 7/7/12
f 7/7/13 8/8/14 2/10/15 1/9/16
f 2/2/17 8/11/18 6/12/19 4/4/20
f 7/13/21 1/1/22 3/3/23 5/14/24
