# This file uses centimeters as units for non-parametric coordinates.

mtllib b320.mtl
g default
v 3.496300 -0.982750 0.800000
v 3.606900 -0.532150 0.800000
v 3.321500 -0.939850 0.800000
v 3.432100 -0.489250 0.800000
v 3.321500 -0.939850 0.700000
v 3.432100 -0.489250 0.700000
v 3.496300 -0.982750 0.700000
v 3.606900 -0.532150 0.700000
vt 0.330000 0.000000
vt 0.663333 0.000000
vt 0.330000 0.250000
vt 0.663333 0.250000
vt 0.330000 0.500000
vt 0.663333 0.500000
vt 0.330000 0.750000
vt 0.663333 0.750000
vt 0.330000 1.000000
vt 0.663333 1.000000
vt 1.000000 0.000000
vt 1.000000 0.250000
vt 0.000000 0.000000
vt 0.000000 0.250000
vn 0.000000 0.000000 1.000000
vn 0.000000 0.000000 1.000000
vn 0.000000 0.000000 1.000000
vn 0.000000 0.000000 1.000000
vn -0.971173 0.238375 0.000000
vn -0.971173 0.238375 0.000000
vn -0.971173 0.238375 0.000000
vn -0.971173 0.238375 0.000000
vn 0.000000 0.000000 -1.000000
vn 0.000000 0.000000 -1.000000
vn 0.000000 0.000000 -1.000000
vn 0.000000 0.000000 -1.000000
vn 0.971173 -0.238375 0.000000
vn 0.971173 -0.238375 0.000000
vn 0.971173 -0.238375 0.000000
vn 0.971173 -0.238375 0.000000
vn 0.238350 0.971179 0.000000
vn 0.238350 0.971179 0.000000
vn 0.238350 0.971179 0.000000
vn 0.238350 0.971179 0.000000
vn -0.238350 -0.971179 0.000000
vn -0.238350 -0.971179 0.000000
vn -0.238350 -0.971179 0.000000
vn -0.238350 -0.971179 0.000000
s off
g pCube320
usemtl initialShadingGroup
f 1/1/1 2/2/2 4/4/3 3/3/4
f 3/3/5 4/4/6 6/6/7 5/5/8
f 5/5/9 6/6/10 8/8/11 7/7/12
f 7/7/13 8/8/14 2/10/15 1/9/16
f 2/2/17 8/11/18 6/12/19 4/4/20
f 7/13/21 1/1/22 3/3/23 5/14/24
