# This file uses centimeters as units for non-parametric coordinates.

mtllib b37.mtl
g default
v -2.609250 2.257550 0.100000
v -3.092850 2.054350 0.100000
v -2.539550 2.091650 0.100000
v -3.023150 1.888450 0.100000
v -2.539550 2.091650 0.000000
v -3.023150 1.888450 0.000000
v -2.609250 2.257550 0.000000
v -3.092850 2.054350 0.000000
vt 0.330000 0.000000
vt 0.663333 0.000000
vt 0.330000 0.250000
vt 0.663333 0.250000
vt 0.330000 0.500000
vt 0.663333 0.500000
vt 0.330000 0.750000
vt 0.663333 0.750000
vt 0.330000 1.000000
vt 0.663333 1.000000
vt 1.000000 0.000000
vt 1.000000 0.250000
vt 0.000000 0.000000
vt 0.000000 0.250000
vn 0.000000 -0.000000 1.000000
vn 0.000000 -0.000000 1.000000
vn 0.000000 -0.000000 1.000000
vn 0.000000 -0.000000 1.000000
vn 0.387375 -0.921922 0.000000
vn 0.387375 -0.921922 0.000000
vn 0.387375 -0.921922 0.000000
vn 0.387375 -0.921922 0.000000
vn 0.000000 0.000000 -1.000000
vn 0.000000 0.000000 -1.000000
vn 0.000000 0.000000 -1.000000
vn 0.000000 0.000000 -1.000000
vn -0.387375 0.921922 0.000000
vn -0.387375 0.921922 0.000000
vn -0.387375 0.921922 0.000000
vn -0.387375 0.921922 0.000000
vn -0.921938 -0.387336 0.000000
vn -0.921938 -0.387336 0.000000
vn -0.921938 -0.387336 0.000000
vn -0.921938 -0.387336 0.000000
vn 0.921938 0.387336 0.000000
vn 0.921938 0.387336 0.000000
vn 0.921938 0.387336 0.000000
vn 0.921938 0.387336 0.000000
s off
g pCube37
usemtl initialShadingGroup
f 1/1/1 2/2/2 4/4/3 3/3/4
f 3/3/5 4/4/6 6/6/7 5/5/8
f 5/5/9 6/6/10 8/8/11 7/7/12
f 7/7/13 8/8/14 2/10/15 1/9/16
f 2/2/17 8/11/18 6/12/19 4/4/20
f 7/13/21 1/1/22 3/3/23 5/14/24
