# This file uses centimeters as units for non-parametric coordinates.

mtllib b53.mtl
g default
v -0.071800 -3.705150 0.200000
v 0.432900 -3.744150 0.200000
v -0.057900 -3.525650 0.200000
v 0.446800 -3.564650 0.200000
v -0.057900 -3.525650 0.100000
v 0.446800 -3.564650 0.100000
v -0.071800 -3.705150 0.100000
v 0.432900 -3.744150 0.100000
vt 0.330000 0.000000
vt 0.663333 0.000000
vt 0.330000 0.250000
vt 0.663333 0.250000
vt 0.330000 0.500000
vt 0.663333 0.500000
vt 0.330000 0.750000
vt 0.663333 0.750000
vt 0.330000 1.000000
vt 0.663333 1.000000
vt 1.000000 0.000000
vt 1.000000 0.250000
vt 0.000000 0.000000
vt 0.000000 0.250000
vn 0.000000 0.000000 1.000000
vn 0.000000 0.000000 1.000000
vn 0.000000 0.000000 1.000000
vn 0.000000 0.000000 1.000000
vn 0.077044 0.997028 0.000000
vn 0.077044 0.997028 0.000000
vn 0.077044 0.997028 0.000000
vn 0.077044 0.997028 0.000000
vn 0.000000 0.000000 -1.000000
vn 0.000000 0.000000 -1.000000
vn 0.000000 0.000000 -1.000000
vn 0.000000 0.000000 -1.000000
vn -0.077044 -0.997028 0.000000
vn -0.077044 -0.997028 0.000000
vn -0.077044 -0.997028 0.000000
vn -0.077044 -0.997028 0.000000
vn 0.997015 -0.077206 0.000000
vn 0.997015 -0.077206 0.000000
vn 0.997015 -0.077206 0.000000
vn 0.997015 -0.077206 0.000000
vn -0.997015 0.077206 0.000000
vn -0.997015 0.077206 0.000000
vn -0.997015 0.077206 0.000000
vn -0.997015 0.077206 0.000000
s off
g pCube53
usemtl initialShadingGroup
f 1/1/1 2/2/2 4/4/3 3/3/4
f 3/3/5 4/4/6 6/6/7 5/5/8
f 5/5/9 6/6/10 8/8/11 7/7/12
f 7/7/13 8/8/14 2/10/15 1/9/16
f 2/2/17 8/11/18 6/12/19 4/4/20
f 7/13/21 1/1/22 3/3/23 5/14/24
