# This file uses centimeters as units for non-parametric coordinates.

mtllib b93.mtl
g default
v -1.617350 -3.493550 0.300000
v -1.197050 -3.675250 0.300000
v -1.545950 -3.328350 0.300000
v -1.125650 -3.510050 0.300000
v -1.545950 -3.328350 0.200000
v -1.125650 -3.510050 0.200000
v -1.617350 -3.493550 0.200000
v -1.197050 -3.675250 0.200000
vt 0.330000 0.000000
vt 0.663333 0.000000
vt 0.330000 0.250000
vt 0.663333 0.250000
vt 0.330000 0.500000
vt 0.663333 0.500000
vt 0.330000 0.750000
vt 0.663333 0.750000
vt 0.330000 1.000000
vt 0.663333 1.000000
vt 1.000000 0.000000
vt 1.000000 0.250000
vt 0.000000 0.000000
vt 0.000000 0.250000
vn 0.000000 0.000000 1.000000
vn 0.000000 0.000000 1.000000
vn 0.000000 0.000000 1.000000
vn 0.000000 0.000000 1.000000
vn 0.396817 0.917898 0.000000
vn 0.396817 0.917898 0.000000
vn 0.396817 0.917898 0.000000
vn 0.396817 0.917898 0.000000
vn 0.000000 0.000000 -1.000000
vn 0.000000 0.000000 -1.000000
vn 0.000000 0.000000 -1.000000
vn 0.000000 0.000000 -1.000000
vn -0.396817 -0.917898 0.000000
vn -0.396817 -0.917898 0.000000
vn -0.396817 -0.917898 0.000000
vn -0.396817 -0.917898 0.000000
vn 0.917934 -0.396734 0.000000
vn 0.917934 -0.396734 0.000000
vn 0.917934 -0.396734 0.000000
vn 0.917934 -0.396734 0.000000
vn -0.917934 0.396734 0.000000
vn -0.917934 0.396734 0.000000
vn -0.917934 0.396734 0.000000
vn -0.917934 0.396734 0.000000
s off
g pCube93
usemtl initialShadingGroup
f 1/1/1 2/2/2 4/4/3 3/3/4
f 3/3/5 4/4/6 6/6/7 5/5/8
f 5/5/9 6/6/10 8/8/11 7/7/12
f 7/7/13 8/8/14 2/10/15 1/9/16
f 2/2/17 8/11/18 6/12/19 4/4/20
f 7/13/21 1/1/22 3/3/23 5/14/24
