# This file uses centimeters as units for non-parametric coordinates.

mtllib b100.mtl
g default
v -0.006000 3.731350 0.100000
v -0.178000 3.747250 0.100000
v -0.022600 3.552150 0.100000
v -0.194600 3.568050 0.100000
v -0.022600 3.552150 0.000000
v -0.194600 3.568050 0.000000
v -0.006000 3.731350 0.000000
v -0.178000 3.747250 0.000000
vt 0.330000 0.000000
vt 0.663333 0.000000
vt 0.330000 0.250000
vt 0.663333 0.250000
vt 0.330000 0.500000
vt 0.663333 0.500000
vt 0.330000 0.750000
vt 0.663333 0.750000
vt 0.330000 1.000000
vt 0.663333 1.000000
vt 1.000000 0.000000
vt 1.000000 0.250000
vt 0.000000 0.000000
vt 0.000000 0.250000
vn 0.000000 0.000000 1.000000
vn 0.000000 0.000000 1.000000
vn 0.000000 0.000000 1.000000
vn 0.000000 0.000000 1.000000
vn -0.092049 -0.995754 0.000000
vn -0.092049 -0.995754 0.000000
vn -0.092049 -0.995754 0.000000
vn -0.092049 -0.995754 0.000000
vn -0.000000 0.000000 -1.000000
vn -0.000000 0.000000 -1.000000
vn -0.000000 0.000000 -1.000000
vn -0.000000 0.000000 -1.000000
vn 0.092049 0.995754 0.000000
vn 0.092049 0.995754 0.000000
vn 0.092049 0.995754 0.000000
vn 0.092049 0.995754 0.000000
vn -0.995737 0.092239 0.000000
vn -0.995737 0.092239 0.000000
vn -0.995737 0.092239 0.000000
vn -0.995737 0.092239 0.000000
vn 0.995737 -0.092239 0.000000
vn 0.995737 -0.092239 0.000000
vn 0.995737 -0.092239 0.000000
vn 0.995737 -0.092239 0.000000
s off
g pCube100
usemtl initialShadingGroup
f 1/1/1 2/2/2 4/4/3 3/3/4
f 3/3/5 4/4/6 6/6/7 5/5/8
f 5/5/9 6/6/10 8/8/11 7/7/12
f 7/7/13 8/8/14 2/10/15 1/9/16
f 2/2/17 8/11/18 6/12/19 4/4/20
f 7/13/21 1/1/22 3/3/23 5/14/24
