# This file uses centimeters as units for non-parametric coordinates.

mtllib b101.mtl
g default
v -0.187250 3.748650 0.100000
v -0.357250 3.783450 0.100000
v -0.223350 3.572350 0.100000
v -0.393350 3.607150 0.100000
v -0.223350 3.572350 0.000000
v -0.393350 3.607150 0.000000
v -0.187250 3.748650 0.000000
v -0.357250 3.783450 0.000000
vt 0.330000 0.000000
vt 0.663333 0.000000
vt 0.330000 0.250000
vt 0.663333 0.250000
vt 0.330000 0.500000
vt 0.663333 0.500000
vt 0.330000 0.750000
vt 0.663333 0.750000
vt 0.330000 1.000000
vt 0.663333 1.000000
vt 1.000000 0.000000
vt 1.000000 0.250000
vt 0.000000 0.000000
vt 0.000000 0.250000
vn 0.000000 0.000000 1.000000
vn 0.000000 0.000000 1.000000
vn 0.000000 0.000000 1.000000
vn 0.000000 0.000000 1.000000
vn -0.200547 -0.979684 0.000000
vn -0.200547 -0.979684 0.000000
vn -0.200547 -0.979684 0.000000
vn -0.200547 -0.979684 0.000000
vn -0.000000 0.000000 -1.000000
vn -0.000000 0.000000 -1.000000
vn -0.000000 0.000000 -1.000000
vn -0.000000 0.000000 -1.000000
vn 0.200547 0.979684 0.000000
vn 0.200547 0.979684 0.000000
vn 0.200547 0.979684 0.000000
vn 0.200547 0.979684 0.000000
vn -0.979673 0.200602 0.000000
vn -0.979673 0.200602 0.000000
vn -0.979673 0.200602 0.000000
vn -0.979673 0.200602 0.000000
vn 0.979673 -0.200602 0.000000
vn 0.979673 -0.200602 0.000000
vn 0.979673 -0.200602 0.000000
vn 0.979673 -0.200602 0.000000
s off
g pCube101
usemtl initialShadingGroup
f 1/1/1 2/2/2 4/4/3 3/3/4
f 3/3/5 4/4/6 6/6/7 5/5/8
f 5/5/9 6/6/10 8/8/11 7/7/12
f 7/7/13 8/8/14 2/10/15 1/9/16
f 2/2/17 8/11/18 6/12/19 4/4/20
f 7/13/21 1/1/22 3/3/23 5/14/24
