# This file uses centimeters as units for non-parametric coordinates.

mtllib b213.mtl
g default
v 3.785400 1.422000 0.200000
v 3.710100 1.565000 0.200000
v 3.626100 1.338200 0.200000
v 3.550800 1.481200 0.200000
v 3.626100 1.338200 0.100000
v 3.550800 1.481200 0.100000
v 3.785400 1.422000 0.100000
v 3.710100 1.565000 0.100000
vt 0.330000 0.000000
vt 0.663333 0.000000
vt 0.330000 0.250000
vt 0.663333 0.250000
vt 0.330000 0.500000
vt 0.663333 0.500000
vt 0.330000 0.750000
vt 0.663333 0.750000
vt 0.330000 1.000000
vt 0.663333 1.000000
vt 1.000000 0.000000
vt 1.000000 0.250000
vt 0.000000 0.000000
vt 0.000000 0.250000
vn 0.000000 0.000000 1.000000
vn 0.000000 0.000000 1.000000
vn 0.000000 0.000000 1.000000
vn 0.000000 0.000000 1.000000
vn -0.884824 -0.465925 0.000000
vn -0.884824 -0.465925 0.000000
vn -0.884824 -0.465925 0.000000
vn -0.884824 -0.465925 0.000000
vn -0.000000 0.000000 -1.000000
vn -0.000000 0.000000 -1.000000
vn -0.000000 0.000000 -1.000000
vn -0.000000 0.000000 -1.000000
vn 0.884824 0.465925 0.000000
vn 0.884824 0.465925 0.000000
vn 0.884824 0.465925 0.000000
vn 0.884824 0.465925 0.000000
vn -0.465563 0.885015 0.000000
vn -0.465563 0.885015 0.000000
vn -0.465563 0.885015 0.000000
vn -0.465563 0.885015 0.000000
vn 0.465563 -0.885015 0.000000
vn 0.465563 -0.885015 0.000000
vn 0.465563 -0.885015 0.000000
vn 0.465563 -0.885015 0.000000
s off
g pCube213
usemtl initialShadingGroup
f 1/1/1 2/2/2 4/4/3 3/3/4
f 3/3/5 4/4/6 6/6/7 5/5/8
f 5/5/9 6/6/10 8/8/11 7/7/12
f 7/7/13 8/8/14 2/10/15 1/9/16
f 2/2/17 8/11/18 6/12/19 4/4/20
f 7/13/21 1/1/22 3/3/23 5/14/24
